<svg xmlns="http://www.w3.org/2000/svg" width="64" height="64" viewBox="0 0 64 64" fill="none">
  <defs>
    <linearGradient id="bg" x1="10" y1="8" x2="54" y2="56" gradientUnits="userSpaceOnUse">
      <stop offset="0" stop-color="#22312a" />
      <stop offset="0.55" stop-color="#1b2636" />
      <stop offset="1" stop-color="#111827" />
    </linearGradient>
    <linearGradient id="sun" x1="18" y1="14" x2="34" y2="30" gradientUnits="userSpaceOnUse">
      <stop offset="0" stop-color="#ffd27a" />
      <stop offset="1" stop-color="#d4622a" />
    </linearGradient>
    <linearGradient id="cloud" x1="23" y1="26" x2="45" y2="40" gradientUnits="userSpaceOnUse">
      <stop offset="0" stop-color="#f4efe4" />
      <stop offset="1" stop-color="#cfd8e6" />
    </linearGradient>
    <linearGradient id="rain" x1="30" y1="38" x2="42" y2="52" gradientUnits="userSpaceOnUse">
      <stop offset="0" stop-color="#6ed0ff" />
      <stop offset="1" stop-color="#2997d8" />
    </linearGradient>
  </defs>

  <rect x="4" y="4" width="56" height="56" rx="18" fill="url(#bg)" />
  <path
    d="M21 18.5a8.5 8.5 0 1 1 12.56 7.46 13.3 13.3 0 0 0-3.2-.38c-.35 0-.69.01-1.02.04A8.47 8.47 0 0 1 21 18.5Z"
    fill="url(#sun)"
  />
  <path
    d="M22.8 38.5c-3.2 0-5.8-2.4-5.8-5.35 0-2.66 2.12-4.88 4.95-5.28.94-3.14 4.04-5.42 7.72-5.42 4.1 0 7.5 2.84 8 6.5 3.04.1 5.49 2.47 5.49 5.38 0 3-2.62 5.42-5.85 5.42H22.8Z"
    fill="url(#cloud)"
  />
  <path
    d="M27.5 42.2c1.9 0 1.9 3.1 0 3.1s-1.9-3.1 0-3.1Z"
    fill="url(#rain)"
  />
  <path
    d="M35.2 41.4c2.18 0 2.18 3.55 0 3.55-2.17 0-2.17-3.55 0-3.55Z"
    fill="url(#rain)"
  />
  <path
    d="M31.3 46.3c2.02 0 2.02 3.28 0 3.28s-2.02-3.28 0-3.28Z"
    fill="url(#rain)"
  />
</svg>
